# xmcd
#
# Track frame offsets: 
#        150
#        11785
#        22067
#        33605
#        44437
#        52662
#        62125
#        73960
#        84422
#        96595
#        108957
#        120950
#        132022
#        142292
#        154792
#        170730
#        181217
#        193240
#        202542
#        218202
#
# Disc length: 3060 seconds
#
# Revision: 0
# Processed by: cddbd v1.5.2PL0 Copyright (c) Steve Scherf et al.
# Submitted via: ExactAudioCopy v1.1
#
DISCID=230bf214
DTITLE=Various Artist - Folsom Prison Blues
DYEAR=1994
DGENRE=Country
TTITLE0=George Jones - Heartaches By The Number
TTITLE1=Jerry Lee Lewis - I Love You So Much It Hurts
TTITLE2=Johnny Cash - Thanks A Lot
TTITLE3=Hank Locklin - Born To Ramble
TTITLE4=Roger Miller - Dang Me
TTITLE5=Jerry Wallace - In A Cotton Candy World
TTITLE6=T.Texas Tyler - Remember Me
TTITLE7=Tillman Frank Singers - I Can't Help It (If I'm Still Falling 
TTITLE7=In Love With You)
TTITLE8=Jimmy Dean - Pickin' Sweethearts
TTITLE9=Johnny Cash - Folsom Prison Blues
TTITLE10=Wyn Stewart - Wishful Thinking
TTITLE11=The Carlisles - No Help Wanted
TTITLE12=Roy Orbison - Domino
TTITLE13=Merle Kilgore - 42 In Chicago
TTITLE14=Jeannie C.Riley - The Cotton Patch
TTITLE15=Conway Twitty - Born To Sing The Blues
TTITLE16=Jerry Wallace - Release Me
TTITLE17=Johnny Cash - Down The Street To 301
TTITLE18=Roger Miller - With Pen In Hand
TTITLE19=Jerry Lee Lewis - See See Rider
EXTD=
EXTT0=
EXTT1=
EXTT2=
EXTT3=
EXTT4=
EXTT5=
EXTT6=
EXTT7=
EXTT8=
EXTT9=
EXTT10=
EXTT11=
EXTT12=
EXTT13=
EXTT14=
EXTT15=
EXTT16=
EXTT17=
EXTT18=
EXTT19=
PLAYORDER=
